name C:\Users\u0101727\Documents\MyRepositories\paper-ad\predictivesimulations_2d/Results/PredSim_2D/IK_c31.mot
datacolumns 11
datarows 47
range 1.28499874 1.72943439
endheader
time	pelvis_tilt	pelvis_tx	pelvis_ty	hip_flexion_l	hip_flexion_r	knee_angle_l	knee_angle_r	ankle_angle_l	ankle_angle_r	lumbar_extension	
          1.28499874	        -16.10186497	          1.70496187	          0.89933322	         35.20514770	         11.37865481	        -37.31401491	         -6.67338603	         15.42350444	         11.46408415	         10.32292124	
          1.29466038	        -16.10368418	          1.71700459	          0.89834965	         36.14913807	         10.60614986	        -35.78559963	         -6.73925888	         15.66868449	         11.55072828	         10.27720233	
          1.30432203	        -16.10695766	          1.72911471	          0.89730472	         37.02449393	          9.84944054	        -34.14598647	         -6.83759095	         15.84048693	         11.61670668	         10.23544342	
          1.31398367	        -16.11207941	          1.74129919	          0.89620207	         37.82547949	          9.10862042	        -32.39913764	         -6.96944727	         15.94734830	         11.66498503	         10.19812475	
          1.32364531	        -16.11934822	          1.75356615	          0.89504414	         38.54645396	          8.38376521	        -30.55197990	         -7.13541672	         15.99738010	         11.69569683	         10.16582375	
          1.33330696	        -16.12857354	          1.76592647	          0.89383429	         39.18317048	          7.67573667	        -28.63593805	         -7.33914232	         15.99802229	         11.70828857	         10.13905762	
          1.34296860	        -16.13944297	          1.77839577	          0.89258229	         39.72714472	          6.98626386	        -26.68946633	         -7.58684857	         15.95576971	         11.69977612	         10.11886528	
          1.35263025	        -16.15171918	          1.79099242	          0.89130573	         40.16691742	          6.31788240	        -24.74237225	         -7.88544889	         15.87614242	         11.66129742	         10.10672660	
          1.36229189	        -16.16484846	          1.80373481	          0.89002726	         40.49524841	          5.67461066	        -22.81983792	         -8.24402491	         15.76354406	         11.57894935	         10.10385901	
          1.37195354	        -16.17775936	          1.81663919	          0.88876898	         40.71446348	          5.06095043	        -20.94953548	         -8.67249106	         15.62099356	         11.43819913	         10.11077633	
          1.38161518	        -16.18911606	          1.82972034	          0.88754941	         40.83160728	          4.48224593	        -19.15488504	         -9.18221692	         15.45004051	         11.22585711	         10.12759319	
          1.39127683	        -16.19780408	          1.84299395	          0.88638425	         40.85106539	          3.94429473	        -17.44407767	         -9.78452405	         15.25104196	         10.92811983	         10.15472476	
          1.40093847	        -16.20278275	          1.85647559	          0.88528537	         40.77813986	          3.45236916	        -15.82711424	        -10.48922953	         15.02309569	         10.53123531	         10.19257200	
          1.41060012	        -16.20289666	          1.87017987	          0.88425986	         40.62015229	          3.01169602	        -14.32241175	        -11.30607273	         14.76403720	         10.02303216	         10.24130941	
          1.42026176	        -16.19702497	          1.88412149	          0.88330969	         40.38174513	          2.62824441	        -12.94467336	        -12.24578246	         14.47104713	          9.39153717	         10.30127569	
          1.42992341	        -16.18391625	          1.89831428	          0.88243065	         40.06655494	          2.30877786	        -11.71102522	        -13.32027185	         14.14064424	          8.62486995	         10.37281035	
          1.43958505	        -16.16200488	          1.91276969	          0.88161090	         39.68108520	          2.05964146	        -10.65382729	        -14.54082839	         13.76816039	          7.71478855	         10.45597109	
          1.44924669	        -16.12971818	          1.92749810	          0.88082992	         39.22741444	          1.88686987	         -9.80897745	        -15.91927884	         13.34837691	          6.66096192	         10.55114339	
          1.45890834	        -16.08579140	          1.94250656	          0.88005277	         38.70006889	          1.79446677	         -9.20890055	        -17.47047762	         12.87589624	          5.48696185	         10.65922919	
          1.46856998	        -16.02994619	          1.95778620	          0.87922663	         38.08502546	          1.78544904	         -8.89791061	        -19.20201469	         12.34622495	          4.20953639	         10.78101968	
          1.47823163	        -15.96495017	          1.97331416	          0.87836634	         37.31733204	          1.86790193	         -8.99252470	        -21.10514950	         11.75630129	          2.78626249	         10.92005137	
          1.48789327	        -15.89953348	          1.98889935	          0.87761749	         36.43815189	          2.04862108	         -9.31808391	        -23.16264338	         11.14464800	          1.28970809	         11.06686352	
          1.49755492	        -15.84508394	          2.00418433	          0.87724291	         35.56967099	          2.36271177	         -9.61620909	        -25.28211555	         10.54747766	         -0.02116534	         11.19702196	
          1.50721656	        -15.81095722	          2.01890444	          0.87751480	         34.74711050	          2.83879756	         -9.89133793	        -27.30570377	          9.96756893	         -1.03147698	         11.29558767	
          1.51687821	        -15.80006073	          2.03299815	          0.87857736	         33.96948327	          3.46579243	        -10.13200375	        -29.16472614	          9.42279102	         -1.78211056	         11.36181042	
          1.52653985	        -15.80733469	          2.04655854	          0.88036552	         33.21634137	          4.22420349	        -10.32484801	        -30.88363339	          8.93183047	         -2.28585497	         11.40208744	
          1.53620150	        -15.82564023	          2.05972058	          0.88264505	         32.46640686	          5.08958869	        -10.46301112	        -32.49393724	          8.50663838	         -2.55867209	         11.42378199	
          1.54586314	        -15.84936026	          2.07259738	          0.88517086	         31.70302027	          6.04426431	        -10.54129415	        -34.01517717	          8.15347702	         -2.62001802	         11.43235810	
          1.55552479	        -15.87497937	          2.08526434	          0.88775807	         30.91728194	          7.07597311	        -10.55901660	        -35.45603227	          7.87379378	         -2.48771178	         11.43092384	
          1.56518643	        -15.90058184	          2.09776832	          0.89028463	         30.10559750	          8.17527283	        -10.51817759	        -36.81737372	          7.66625000	         -2.17937422	         11.42113763	
          1.57484807	        -15.92523147	          2.11013942	          0.89267350	         29.26699952	          9.33393642	        -10.42191166	        -38.09535333	          7.52856689	         -1.71237649	         11.40401243	
          1.58450972	        -15.94846101	          2.12239774	          0.89487636	         28.40236187	         10.54536766	        -10.27469694	        -39.28439689	          7.45777057	         -1.10352573	         11.38015044	
          1.59417136	        -15.97001478	          2.13455823	          0.89686245	         27.51385591	         11.80361989	        -10.08235843	        -40.37780675	          7.45008604	         -0.36925424	         11.34999762	
          1.60383301	        -15.98973093	          2.14663332	          0.89861200	         26.60445783	         13.10289563	         -9.85143513	        -41.36913650	          7.50146621	          0.47387609	         11.31397020	
          1.61349465	        -16.00752844	          2.15863418	          0.90011360	         25.67779517	         14.43682526	         -9.58967174	        -42.25287875	          7.60739345	          1.40896656	         11.27255163	
          1.62315630	        -16.02338766	          2.17056981	          0.90136442	         24.73815866	         15.79944475	         -9.30489675	        -43.02370342	          7.76322212	          2.41891740	         11.22612090	
          1.63281794	        -16.03741183	          2.18244865	          0.90236964	         23.79007694	         17.18350792	         -9.00617564	        -43.67714399	          7.96406639	          3.48631320	         11.17517011	
          1.64247959	        -16.04986242	          2.19427720	          0.90314255	         22.83763891	         18.58281005	         -8.70039540	        -44.20486031	          8.20440494	          4.59373417	         11.12012607	
          1.65214123	        -16.06104320	          2.20606300	          0.90370090	         21.88434752	         19.98990872	         -8.39435366	        -44.59915892	          8.47696440	          5.72360647	         11.06160014	
          1.66180288	        -16.07120932	          2.21781288	          0.90406466	         20.93443696	         21.39821673	         -8.09356567	        -44.85156977	          8.77380461	          6.85837906	         11.00012002	
          1.67146452	        -16.08018526	          2.22954161	          0.90425236	         19.99354892	         22.79331299	         -7.81492573	        -44.95883988	          9.08507803	          7.98016076	         10.93695464	
          1.68112617	        -16.08749913	          2.24125127	          0.90428485	         19.06619986	         24.17946562	         -7.56770537	        -44.90700306	          9.40247931	          9.07230046	         10.87162169	
          1.69078781	        -16.09305805	          2.25294530	          0.90417915	         18.15199497	         25.56165489	         -7.34480051	        -44.68141829	          9.71973831	         10.11859964	         10.80413741	
          1.70044946	        -16.09695803	          2.26464279	          0.90394300	         17.25008644	         26.92452981	         -7.14774494	        -44.28936055	         10.02849045	         11.10243790	         10.73647211	
          1.71011110	        -16.09944649	          2.27635539	          0.90358506	         16.36251156	         28.25762310	         -6.98015533	        -43.73326497	         10.32047336	         12.00917081	         10.66959158	
          1.71977274	        -16.10080982	          2.28809466	          0.90311309	         15.49042051	         29.55082706	         -6.84462578	        -43.01941267	         10.58887777	         12.82655883	         10.60444995	
          1.72943439	        -16.10128988	          2.29986990	          0.90253509	         14.63452245	         30.79677555	         -6.74256676	        -42.15584135	         10.82858394	         13.54597761	         10.54169151	
